<svg width="97" height="97" xmlns="http://www.w3.org/2000/svg" xmlns:xlink="http://www.w3.org/1999/xlink" overflow="hidden"><defs><clipPath id="clip0"><rect x="201" y="119" width="97" height="97"/></clipPath></defs><g clip-path="url(#clip0)" transform="translate(-201 -119)"><path d="M248.49 131.63C244.751 129.811 240.911 128.599 237.072 128.094 248.186 139.107 251.521 156.385 244.145 171.239 236.87 186.092 220.905 193.771 205.547 191.649 208.275 194.377 211.609 196.802 215.247 198.621 233.738 207.816 256.169 200.237 265.263 181.747 274.356 163.256 266.98 140.926 248.49 131.63Z" fill="#4472C4"/><path d="M288.805 174.068C288.603 173.765 288.603 173.36 288.805 173.057L290.725 170.228C290.927 169.824 290.927 169.42 290.725 169.117 290.523 168.814 290.018 168.611 289.715 168.712L286.582 169.521C286.178 169.622 285.774 169.42 285.572 169.117L283.652 166.288C283.349 165.883 282.945 165.782 282.541 165.883 282.136 165.984 281.833 166.389 281.833 166.793L281.631 170.228C281.631 170.632 281.328 170.935 280.924 171.137L277.792 171.845C277.388 171.946 277.084 172.249 277.084 172.754 277.084 173.158 277.286 173.562 277.691 173.664L279.004 174.371 280.722 175.28C280.823 175.381 281.025 175.482 281.126 175.684 281.227 175.886 281.227 175.988 281.227 176.19L281.227 179.625C281.227 180.029 281.429 180.433 281.833 180.534 282.237 180.635 282.642 180.534 282.945 180.231L285.168 177.503C285.471 177.2 285.875 177.099 286.279 177.2L289.614 178.413C290.018 178.514 290.422 178.413 290.725 178.109 291.028 177.806 291.028 177.301 290.826 176.998L288.805 174.068Z" fill="#4472C4"/><path d="M279.206 148.908 281.934 143.957C282.237 143.351 282.844 143.048 283.551 143.149L289.108 144.058C289.816 144.159 290.422 143.856 290.725 143.25 291.028 142.644 290.927 141.835 290.523 141.431L286.683 137.289C286.279 136.884 286.178 136.177 286.38 135.571L288.502 130.418C288.704 129.811 288.603 129.104 288.199 128.7 287.795 128.296 286.986 128.094 286.481 128.397L281.732 130.721C281.126 131.024 280.419 130.822 280.015 130.418L276.175 126.578C275.67 126.073 274.861 125.972 274.255 126.174 273.649 126.477 273.346 127.184 273.346 127.791L274.053 133.146C274.154 133.853 273.851 134.459 273.245 134.762L268.496 137.086C267.89 137.39 267.586 137.996 267.688 138.703 267.789 139.309 268.294 139.916 268.9 140.017L271.224 140.724 274.255 141.633C274.558 141.734 274.76 141.936 275.064 142.139 275.266 142.341 275.367 142.644 275.468 142.947L276.377 148.504C276.478 149.211 276.983 149.717 277.691 149.818 278.398 149.919 278.903 149.515 279.206 148.908Z" fill="#4472C4"/></g></svg>