<svg width="114" height="115" xmlns="http://www.w3.org/2000/svg" xmlns:xlink="http://www.w3.org/1999/xlink" overflow="hidden"><defs><clipPath id="clip0"><rect x="108" y="110" width="114" height="115"/></clipPath></defs><g clip-path="url(#clip0)" transform="translate(-108 -110)"><path d="M33.4246 56.9691C33.4286 56.0641 33.4845 55.1602 33.592 54.2616L19.4263 54.2616 19.4263 59.6054 33.5813 59.6054C33.4799 58.7302 33.4275 57.8501 33.4246 56.9691Z" fill="#FFC000" transform="matrix(1 0 0 1.00877 108 110)"/><path d="M42.3569 38.5379 32.3131 28.5 28.5344 32.2774 38.5736 42.3166C39.6887 40.9189 40.9578 39.6513 42.3569 38.5379Z" fill="#FFC000" transform="matrix(1 0 0 1.00877 108 110)"/><path d="M56.9739 33.4198C57.8669 33.4235 58.7589 33.4779 59.6458 33.5825L59.6458 19.3871 54.302 19.3871 54.302 33.5825C55.1888 33.4778 56.0809 33.4235 56.9739 33.4198Z" fill="#FFC000" transform="matrix(1 0 0 1.00877 108 110)"/><path d="M75.373 42.3118 85.4121 32.2727 81.6335 28.5 71.5896 38.5427C72.9887 39.6524 74.2579 40.9169 75.373 42.3118Z" fill="#FFC000" transform="matrix(1 0 0 1.00877 108 110)"/><path d="M38.5439 71.5861 28.5344 81.5931 32.3131 85.3717 42.3166 75.3694C40.9207 74.2544 39.655 72.9852 38.5439 71.5861Z" fill="#FFC000" transform="matrix(1 0 0 1.00877 108 110)"/><path d="M56.9739 80.5184C56.0809 80.5148 55.1888 80.4605 54.302 80.3558L54.302 94.4799 59.6458 94.4799 59.6458 80.3558C58.7589 80.4604 57.8669 80.5146 56.9739 80.5184Z" fill="#FFC000" transform="matrix(1 0 0 1.00877 108 110)"/><path d="M80.3546 54.2616C80.5758 56.0358 80.5794 57.8303 80.3652 59.6054L94.525 59.6054 94.525 54.2616Z" fill="#FFC000" transform="matrix(1 0 0 1.00877 108 110)"/><path d="M71.63 75.3694 81.6335 85.3717 85.4121 81.5931 75.4062 71.5861C74.2939 72.9853 73.0272 74.2545 71.63 75.3694Z" fill="#FFC000" transform="matrix(1 0 0 1.00877 108 110)"/><path d="M75.7732 56.9691C75.7732 67.3524 67.3559 75.7696 56.9727 75.7696 46.5894 75.7696 38.1722 67.3524 38.1722 56.9691 38.1722 46.5859 46.5894 38.1686 56.9727 38.1686 56.973 38.1686 56.9735 38.1686 56.9739 38.1686 67.3564 38.1686 75.7732 46.5854 75.7732 56.9679 75.7732 56.9683 75.7732 56.9688 75.7732 56.9691Z" fill="#FFC000" transform="matrix(1 0 0 1.00877 108 110)"/></g></svg>